<?xml version="1.0" encoding="iso-8859-1"?>
<!-- Generator: Adobe Illustrator 19.0.1, SVG Export Plug-In . SVG Version: 6.00 Build 0)  -->
<svg version="1.1" xmlns="http://www.w3.org/2000/svg" xmlns:xlink="http://www.w3.org/1999/xlink" x="0px" y="0px"
	 viewBox="0 0 128 128" style="enable-background:new 0 0 128 128;" xml:space="preserve">
<g id="_x31_">
	<path id="icon_1_" style="fill:#262626;" d="M114.057,25.961h-17.7v-7.423c0-6.517-5.316-11.813-11.813-11.813H43.473
		c-6.517,0-11.813,5.296-11.813,11.813v7.423H13.94C6.241,25.961,0,34.231,0,41.988v23.43h22.996
		c1.24-4.095,4.824-7.108,9.116-7.108h3.249c4.292,0,7.875,3.012,9.116,7.108h38.846c1.24-4.095,4.824-7.108,9.096-7.108h3.268
		c4.273,0,7.875,3.012,9.116,7.108h23.193v-23.43C127.996,34.231,121.755,25.961,114.057,25.961z M39.535,18.539
		c0-2.166,1.772-3.938,3.938-3.938h41.071c2.166,0,3.938,1.772,3.938,3.938v7.423H39.535V18.539z M128,69.908v37.293
		c0,7.779-6.239,14.073-13.938,14.073H13.947c-7.701,0-13.939-6.294-13.939-14.073V69.908H9.88h12.749
		c0.656,4.939,4.635,8.765,9.481,8.765h3.26c4.843,0,8.818-3.826,9.474-8.765h7.411h22.618h8.075
		c0.656,4.939,4.635,8.765,9.481,8.765h3.26c4.843,0,8.818-3.826,9.474-8.765h18.599H128z M41.887,68.502
		c0,3.887-2.918,7.05-6.517,7.05h-3.26c-3.598,0-6.524-3.163-6.524-7.05l0,0c0-3.9,2.926-7.066,6.524-7.066h3.26
		C38.969,61.436,41.887,64.602,41.887,68.502L41.887,68.502z M102.035,68.502c0,3.887-2.918,7.05-6.517,7.05h-3.26
		c-3.598,0-6.524-3.163-6.524-7.05l0,0c0-3.9,2.926-7.066,6.524-7.066h3.26C99.117,61.436,102.035,64.602,102.035,68.502
		L102.035,68.502z"/>
</g>
<g id="Layer_1">
</g>
</svg>
