<?xml version="1.0" encoding="utf-8"?>
<!-- Generator: Adobe Illustrator 21.0.0, SVG Export Plug-In . SVG Version: 6.00 Build 0)  -->
<svg version="1.1" id="Layer_1" xmlns="http://www.w3.org/2000/svg" xmlns:xlink="http://www.w3.org/1999/xlink" x="0px" y="0px"
	 viewBox="0 0 256 256" style="enable-background:new 0 0 256 256;" xml:space="preserve">
<style type="text/css">
	.st0{fill:#FFCD29;}
	.st1{fill:#55ACD5;}
	.st2{fill:#EA4647;}
	.st3{fill:#231F20;}
	.st4{fill:#6DCC6D;}
</style>
<g id="Layer_29">
	<path class="st0" d="M106.2,14.8C86.9-2.8,56.9-1.4,39.3,17.9C25.3,33.4,23,56.2,33.8,74.2c0.5,0.8,0.5,1.9,0.1,2.8l-8.1,17.5
		c-0.7,1.5,0,3.3,1.4,4c0.8,0.4,1.7,0.4,2.5,0l17.5-8.1c0.9-0.4,2-0.4,2.8,0.2c22.4,13.4,51.5,6.1,64.9-16.3
		C126.6,54.7,122.9,29.9,106.2,14.8z"/>
	<path class="st1" d="M229.9,230l-15.8-34.1c-0.8-1.7-0.7-3.7,0.2-5.4c26.2-43.6,12.2-100.2-31.4-126.4
		c-18.4-11.1-40.1-15.4-61.3-12.1c-1.2,26.1-23.4,46.3-49.5,45c-5.1-0.2-10.1-1.3-14.8-3.1C30.2,137,43.1,194,86.2,221.1
		c29.4,18.5,66.6,18.9,96.5,1.1c1.7-1,3.8-1.2,5.5-0.3l34.1,15.8c2.9,1.4,6.4,0.1,7.7-2.8C230.7,233.4,230.7,231.6,229.9,230z"/>
	<circle class="st2" cx="74.3" cy="49.8" r="29.8"/>
	<path class="st3" d="M107.9,12.9C87.5-5.6,56-4.1,37.5,16.2c-14.8,16.3-17.2,40.3-5.9,59.2c0.1,0.1,0.1,0.3,0,0.4l-8.1,17.5
		c-1.3,2.8-0.1,6,2.7,7.3c0.7,0.3,1.5,0.5,2.3,0.5c0.8,0,1.6-0.2,2.3-0.5l17.5-8.1c0.2-0.1,0.4,0,0.5,0.1
		c23.6,14.1,54.2,6.4,68.4-17.2C129.3,55,125.5,28.9,107.9,12.9L107.9,12.9z M106.1,81.5C91.6,96.1,69,98.8,51.4,88.3
		c-1.6-1-3.5-1.1-5.2-0.3l-17.5,8.1c-0.2,0.1-0.5,0-0.7-0.2c-0.1-0.1-0.1-0.3,0-0.4L36.2,78c0.8-1.6,0.7-3.6-0.2-5.1
		c-12.7-21.3-5.8-48.8,15.5-61.5c16.9-10.1,38.5-8,53.1,5.3c18.3,16.7,19.7,45,3,63.3C107.1,80.5,106.6,81,106.1,81.5L106.1,81.5z"
		/>
	<path class="st3" d="M232.2,228.9l-15.8-34.1c-0.5-1-0.4-2.1,0.1-3C243.4,147.1,229,89,184.2,62c-18.9-11.4-41.1-15.8-62.9-12.5
		c-1.2,0.2-2.1,1.2-2.1,2.4C118,76.6,97,95.7,72.3,94.6c-4.8-0.2-9.6-1.2-14.1-3c-1.1-0.4-2.4,0-3,1
		c-27.9,44.2-14.6,102.7,29.6,130.6c30.2,19,68.5,19.5,99.1,1.2c1-0.6,2.2-0.7,3.2-0.2l34.1,15.8c1.1,0.5,2.3,0.8,3.5,0.8
		c4.6,0,8.3-3.8,8.3-8.4C233,231.2,232.7,230,232.2,228.9L232.2,228.9z M227,234.8c-1,1-2.5,1.3-3.8,0.7l-34.1-15.8
		c-1.1-0.5-2.3-0.8-3.5-0.8c-1.6,0-3.1,0.4-4.4,1.2c-42.5,25.4-97.6,11.5-123-31c-16.9-28.4-16.9-63.8,0.1-92.1
		c26.1,8.8,54.3-5.1,63.2-31.2c1.3-3.7,2.1-7.6,2.4-11.6c49.1-6.3,94,28.4,100.3,77.5c2.6,20-1.7,40.3-12.1,57.5
		c-1.4,2.4-1.5,5.2-0.4,7.7l15.8,34.1C228.3,232.3,228,233.8,227,234.8L227,234.8z"/>
	<path class="st4" d="M163.7,15.9h-1.8V14c0-1.4-1.1-2.5-2.5-2.5s-2.5,1.1-2.5,2.5v1.8H155c-1.4,0-2.5,1.1-2.5,2.5s1.1,2.5,2.5,2.5
		h1.8v1.8c0,1.4,1.1,2.5,2.5,2.5s2.5-1.1,2.5-2.5v-1.8h1.8c1.4,0,2.5-1.1,2.5-2.5S165.1,15.9,163.7,15.9z"/>
	<path class="st0" d="M188.5,38.4c-0.1-0.3-0.2-0.6-0.4-0.9c-0.1-0.1-0.2-0.3-0.3-0.4c-1-0.9-2.5-0.9-3.5,0
		c-0.1,0.1-0.2,0.2-0.3,0.4c-0.1,0.1-0.2,0.3-0.2,0.4c-0.1,0.2-0.1,0.3-0.1,0.5c-0.1,0.3-0.1,0.7,0,1c0,0.2,0.1,0.3,0.1,0.5
		c0.1,0.1,0.1,0.3,0.2,0.4c0.1,0.1,0.2,0.3,0.3,0.4c1,1,2.5,1,3.5,0c0,0,0,0,0,0c0.1-0.1,0.2-0.2,0.3-0.4c0.1-0.1,0.2-0.3,0.2-0.4
		c0.1-0.1,0.1-0.3,0.1-0.5C188.5,39.1,188.5,38.7,188.5,38.4z"/>
	<path class="st2" d="M56.8,217.3c-0.1-0.3-0.2-0.6-0.4-0.9c-0.1-0.1-0.2-0.3-0.3-0.4c-1-0.9-2.5-0.9-3.5,0
		c-0.1,0.1-0.2,0.2-0.3,0.4c-0.1,0.1-0.2,0.3-0.2,0.4c-0.1,0.2-0.1,0.3-0.1,0.5c-0.1,0.3-0.1,0.7,0,1c0,0.2,0.1,0.3,0.1,0.5
		c0.1,0.1,0.1,0.3,0.2,0.4c0.1,0.1,0.2,0.3,0.3,0.4c1,1,2.5,1,3.5,0c0,0,0,0,0,0c0.1-0.1,0.2-0.2,0.3-0.4c0.1-0.1,0.2-0.3,0.2-0.4
		c0.1-0.1,0.1-0.3,0.1-0.5C56.9,218,56.9,217.6,56.8,217.3z"/>
	<path class="st1" d="M88.2,247.5c-4.1-0.8-7.2-4-8-8c0-0.1-0.1-0.2-0.2-0.2c-0.1,0-0.1,0.1-0.2,0.2c-0.8,4.1-4,7.2-8,8
		c-0.1,0-0.2,0.1-0.2,0.2c0,0.1,0.1,0.1,0.2,0.2c4.1,0.8,7.2,4,8,8c0,0.1,0.1,0.2,0.2,0.2c0.1,0,0.1-0.1,0.2-0.2c0.8-4.1,4-7.2,8-8
		c0.1,0,0.2-0.1,0.2-0.2C88.3,247.5,88.3,247.5,88.2,247.5z"/>
	<path class="st3" d="M136.7,102.3L136.7,102.3l-44.9,0.2c-1.4,0-2.5,1.1-2.5,2.5s1.1,2.5,2.5,2.5h0l44.9-0.2c1.4,0,2.5-1.1,2.5-2.5
		C139.2,103.4,138.1,102.3,136.7,102.3z"/>
	<path class="st3" d="M181.7,115.3L181.7,115.3l-89.9,0.4c-1.4,0-2.5,1.1-2.5,2.5s1.1,2.5,2.5,2.5h0l89.9-0.4c1.4,0,2.5-1.1,2.5-2.5
		C184.2,116.4,183.1,115.3,181.7,115.3z"/>
	<path class="st3" d="M181.7,128.6L91.9,129c-1.4,0-2.5,1.1-2.5,2.5c0,1.4,1.1,2.5,2.5,2.5h0l89.9-0.4c1.4,0,2.5-1.1,2.5-2.5
		S183.1,128.6,181.7,128.6L181.7,128.6z"/>
	<path class="st3" d="M181.8,141.8L181.8,141.8l-89.9,0.4c-1.4,0-2.5,1.1-2.5,2.5c0,1.4,1.1,2.5,2.5,2.5h0l89.9-0.4
		c1.4,0,2.5-1.1,2.5-2.5C184.3,142.9,183.2,141.8,181.8,141.8L181.8,141.8L181.8,141.8z"/>
	<path class="st3" d="M181.9,155L181.9,155L92,155.4c-1.4,0-2.5,1.1-2.5,2.5c0,1.4,1.1,2.5,2.5,2.5h0l89.9-0.4
		c1.4,0,2.5-1.1,2.5-2.5C184.4,156.1,183.2,155,181.9,155L181.9,155z"/>
	<path class="st3" d="M181.8,168.2L181.8,168.2l-89.9,0.4c-1.4,0-2.5,1.1-2.5,2.5c0,1.4,1.1,2.5,2.5,2.5h0l89.9-0.4
		c1.4,0,2.5-1.1,2.5-2.5C184.3,169.3,183.2,168.2,181.8,168.2L181.8,168.2L181.8,168.2z"/>
	<path class="st3" d="M181.9,181.5L181.9,181.5L92,181.8c-1.4,0-2.5,1.1-2.5,2.5c0,1.4,1.1,2.5,2.5,2.5h0l89.9-0.4
		c1.4,0,2.5-1.1,2.5-2.5C184.4,182.6,183.2,181.4,181.9,181.5z"/>
	<path class="st3" d="M74.3,17.5C56.5,17.5,42,31.9,42,49.8s14.5,32.3,32.3,32.3s32.3-14.5,32.3-32.3
		C106.6,31.9,92.1,17.5,74.3,17.5z M74.3,77.1C59.2,77.1,47,64.8,47,49.8c0-15.1,12.2-27.3,27.3-27.3s27.3,12.2,27.3,27.3
		C101.6,64.8,89.4,77.1,74.3,77.1L74.3,77.1z"/>
	<path class="st3" d="M88,42.2c-0.4-7.1-6-12.7-13.1-13.1c-7.6-0.4-14,5.5-14.4,13.1c0,0.2,0,0.4,0,0.6c0,1.4,1.1,2.5,2.5,2.5
		c1.4,0,2.5-1.1,2.5-2.5c0-4.8,3.9-8.7,8.7-8.7c0.1,0,0.3,0,0.4,0c4.8,0.2,8.5,4.3,8.3,9.1c-0.2,3.5-2.4,6.6-5.8,7.8
		c-3.3,1.2-5.5,4.3-5.5,7.8c0,1.4,1.1,2.5,2.5,2.5s2.5-1.1,2.5-2.5c0-1.4,0.9-2.6,2.2-3.1C84.6,53.8,88.3,48.3,88,42.2z"/>
	<path class="st3" d="M76.7,67.3c0-0.2-0.1-0.3-0.1-0.5c-0.1-0.1-0.2-0.3-0.2-0.4c-0.1-0.1-0.2-0.3-0.3-0.4
		c-0.1-0.1-0.2-0.2-0.4-0.3c-0.1-0.1-0.3-0.2-0.4-0.2c-0.1-0.1-0.3-0.1-0.5-0.1c-0.3-0.1-0.7-0.1-1,0c-0.2,0-0.3,0.1-0.5,0.1
		c-0.2,0.1-0.3,0.1-0.4,0.2c-0.1,0.1-0.3,0.2-0.4,0.3c-0.1,0.1-0.2,0.2-0.3,0.4c-0.2,0.3-0.3,0.6-0.4,0.9c0,0.2-0.1,0.3-0.1,0.5
		c0,0.2,0,0.3,0.1,0.5c0,0.2,0.1,0.3,0.1,0.5c0.1,0.2,0.1,0.3,0.2,0.4c0.1,0.1,0.2,0.3,0.3,0.4c0.1,0.1,0.2,0.2,0.4,0.3
		c0.1,0.1,0.3,0.2,0.4,0.2c0.2,0.1,0.3,0.1,0.5,0.1c0.2,0,0.3,0,0.5,0.1c0.2,0,0.3,0,0.5-0.1c0.2,0,0.3-0.1,0.5-0.1
		c0.1-0.1,0.3-0.1,0.4-0.2c0.1-0.1,0.3-0.2,0.4-0.3c0.1-0.1,0.2-0.2,0.3-0.4c0.1-0.1,0.2-0.3,0.2-0.4c0.1-0.1,0.1-0.3,0.1-0.5
		c0-0.2,0-0.3,0.1-0.5C76.8,67.6,76.8,67.4,76.7,67.3z"/>
</g>
</svg>
